<svg id="图层_1" data-name="图层 1" xmlns="http://www.w3.org/2000/svg" xmlns:xlink="http://www.w3.org/1999/xlink" viewBox="0 0 596.28 156.59"><defs><linearGradient id="未命名的渐变_15" x1="23.76" y1="39.47" x2="23.76" y2="156.59" gradientUnits="userSpaceOnUse"><stop offset="0" stop-color="#136cbf"/><stop offset="1" stop-color="#1b85b3"/></linearGradient><linearGradient id="未命名的渐变_15-2" x1="184.38" y1="0" x2="184.38" y2="154.58" xlink:href="#未命名的渐变_15"/><linearGradient id="未命名的渐变_10" x1="49.64" y1="56.98" x2="98.59" y2="56.98" gradientUnits="userSpaceOnUse"><stop offset="0" stop-color="#b2c1d9"/><stop offset="1" stop-color="#a3b7cc"/></linearGradient><linearGradient id="未命名的渐变_10-2" x1="33.34" y1="78.73" x2="173.47" y2="78.73" xlink:href="#未命名的渐变_10"/><linearGradient id="未命名的渐变_10-3" x1="83.61" y1="130.94" x2="156.67" y2="130.94" xlink:href="#未命名的渐变_10"/></defs><path d="M14.69,59.71,44.4,39.81a2,2,0,0,1,3.08,2L28.71,154.92a2,2,0,0,1-2.45,1.62l-24.73-6A2,2,0,0,1,0,148.24L13.83,61.06A2,2,0,0,1,14.69,59.71Z" style="fill:url(#未命名的渐变_15)"/><path d="M177.77,1.76l-18.5,150.57a2,2,0,0,0,2.65,2.13l31.22-11a2,2,0,0,0,1.32-1.65l15-124.42a2,2,0,0,0-1-2L180.71.25A2,2,0,0,0,177.77,1.76Z" style="fill:url(#未命名的渐变_15-2)"/><path d="M52,40.4,49.66,54.57a2,2,0,0,0,1.05,2.06L85.61,75A2,2,0,0,0,88,74.67l10-10a2,2,0,0,0-.48-3.18L54.89,38.93A2,2,0,0,0,52,40.4Z" style="fill:url(#未命名的渐变_10)"/><path d="M37.34,131.41,170.08,2.47a2,2,0,0,1,3.37,1.69l-2.33,18.78a2,2,0,0,1-.58,1.18L36.74,155a2,2,0,0,1-3.38-1.74l3.4-20.7A2,2,0,0,1,37.34,131.41Z" style="fill:url(#未命名的渐变_10-2)"/><path d="M84.22,115.82l8.43-8.25a2,2,0,0,1,2.33-.34l60.62,32.05a2,2,0,0,1,1.05,2l-1.58,11.82a2,2,0,0,1-2.93,1.54L84.68,119A2,2,0,0,1,84.22,115.82Z" style="fill:url(#未命名的渐变_10-3)"/><path d="M266.58,123h-6.41v-.8h13.89v.8h-6.41v15.92h-1.07Z" style="fill:#262626;stroke:#262626;stroke-miterlimit:10;stroke-width:0.772880620473577px"/><path d="M304.39,130.53c0-5.27,3.31-8.61,7.93-8.61s7.93,3.34,7.93,8.61-3.31,8.71-7.93,8.71S304.39,135.81,304.39,130.53Zm14.81,0c0-4.79-2.77-7.81-6.88-7.81s-6.88,3-6.88,7.81,2.76,7.91,6.88,7.91S319.2,135.33,319.2,130.53Z" style="fill:#262626;stroke:#262626;stroke-miterlimit:10;stroke-width:0.765757076351576px"/><path d="M353.57,122.22h1.09l8.87,12.19,2.3,3.29H366c-.11-1.61-.17-3.16-.17-4.72V122.22h1v16.72h-1.11l-8.85-12.18-2.3-3.3h-.11c.06,1.57.11,3,.11,4.59v10.89h-1Z" style="fill:#262626;stroke:#262626;stroke-miterlimit:10;stroke-width:0.382878538175788px"/><path d="M579.94,122.22H581l8.87,12.19,2.3,3.29h.14c-.11-1.61-.17-3.16-.17-4.72V122.22h1v16.72h-1.11l-8.84-12.18-2.3-3.3h-.11c.05,1.57.11,3,.11,4.59v10.89h-1Z" style="fill:#262626;stroke:#262626;stroke-miterlimit:10;stroke-width:0.382878538175788px"/><path d="M413.62,131.47v5.91a8.45,8.45,0,0,1-5.73,1.86c-4.95,0-8.23-3.43-8.23-8.71s3.39-8.61,8.53-8.61a7.33,7.33,0,0,1,5.21,2l-.62.58a6.32,6.32,0,0,0-4.59-1.76c-4.63,0-7.48,3-7.48,7.81s2.72,7.91,7.26,7.91a7.45,7.45,0,0,0,4.6-1.34v-5.63" style="fill:#262626;stroke:#262626;stroke-miterlimit:10;stroke-width:0.765757076351576px"/><path d="M450.61,132.08l-5.86-9.86h1.07l3.1,5.37c.72,1.24,1.37,2.41,2.15,3.64h.1c.79-1.23,1.54-2.4,2.18-3.64l3.12-5.37h1l-5.87,9.86v6.86h-1Z" style="fill:#262626;stroke:#262626;stroke-miterlimit:10;stroke-width:0.765757076351576px"/><path d="M489.11,132.68V122.22h1.07v10.27c0,4.59,2.77,5.95,5.8,5.95s5.91-1.36,5.91-5.95V122.22h1v10.46c0,5.18-3.55,6.56-6.95,6.56S489.11,137.86,489.11,132.68Z" style="fill:#262626;stroke:#262626;stroke-miterlimit:10;stroke-width:0.765757076351576px"/><path d="M537.16,133l-2.63,5.94h-1.07L541,122.22h1l7.51,16.72h-1.15l-2.6-5.94-.32-.74-1.45-3.34c-.89-2-1.62-3.73-2.4-5.83h-.11c-.78,2.1-1.54,3.8-2.43,5.83l-1.48,3.34Z" style="fill:#262626;stroke:#262626;stroke-miterlimit:10;stroke-width:0.765757076351576px"/><rect x="271.72" y="55.61" width="32.83" height="3.95" style="fill:#262626;stroke:#262626;stroke-miterlimit:10;stroke-width:0.785960351571747px"/><path d="M302.14,68.56H273.76V88.21h28.38Zm-24,15.86v-12h19.58v12Z" style="fill:#262626;stroke:#262626;stroke-miterlimit:10;stroke-width:0.785960351571747px"/><path d="M302.63,42H259v58.9h4.62V46.24h48.81V95c0,1.16-.5,1.56-1.77,1.63-1,.06-4.83.07-8.63,0V101c6,0,10.06-.07,12.17-.88S317,98,317,95V42Z" style="fill:#262626;stroke:#262626;stroke-miterlimit:10;stroke-width:0.785960351571747px"/><path d="M558.28,51h32.43v7h4.47V47H577.94A78.18,78.18,0,0,0,574,38.61l-4.32,1.09c1.06,2.24,2.34,5,3.19,7.28H554V58.69h4.33Z" style="fill:#262626;stroke:#262626;stroke-miterlimit:10;stroke-width:0.785960351571747px"/><path d="M554.31,67.68a26.17,26.17,0,0,1,3,3.34,66.42,66.42,0,0,0,14.54-14.37l-4.11-1.36A50.67,50.67,0,0,1,554.31,67.68Z" style="fill:#262626;stroke:#262626;stroke-miterlimit:10;stroke-width:0.785960351571747px"/><path d="M577.23,57.67a175.06,175.06,0,0,1,13.26,12.6l3.13-2.93c-3-3.13-8.94-8.37-13.41-12.12Z" style="fill:#262626;stroke:#262626;stroke-miterlimit:10;stroke-width:0.785960351571747px"/><polygon points="576.3 94.31 576.3 76.81 590.85 76.81 590.85 72.72 557.29 72.72 557.29 76.81 571.55 76.81 571.55 94.31 551.47 94.31 551.47 98.39 595.89 98.39 595.89 94.31 576.3 94.31" style="fill:#262626;stroke:#262626;stroke-miterlimit:10;stroke-width:0.785960351571747px"/><path d="M551.33,69.05l-7,2.31V56.24h6V52.09h-6V38.61h-4.4V52.09h-8.73v4.15h8.73V72.86c-2.36.8-4.53,1.47-6.51,2.07l-3,.92,1.06,4.43,1.94-.66,6.51-2.2V94.78c0,1-.36,1.23-1.28,1.23-.65.06-3.22.07-5.75,0v4.13c4.41.06,7.54-.08,9.15-.82s2.28-1.91,2.28-4.57V75.85c2.55-.95,5.17-1.77,7.8-2.72Z" style="fill:#262626;stroke:#262626;stroke-miterlimit:10;stroke-width:0.785960351571747px"/><path d="M471.8,68.09a51.61,51.61,0,0,0,6.74-14.77h18.87c-1,4.83-2.27,10.14-3.33,13.55L497.84,68A129.26,129.26,0,0,0,502,52l-2.52-2.74H479.68c.85-3.2,1.41-6.54,2-9.94l-4.54-.68c-1.56,10.55-4.28,20.42-9.25,26.89A28.15,28.15,0,0,1,471.8,68.09Z" style="fill:#262626;stroke:#262626;stroke-miterlimit:10;stroke-width:0.785960351571747px"/><path d="M469,80.08c-3.19.4-6.45.88-9.65,1.36V71.77h9.23V67.62h-9.23V57.47H455V67.62h-8.3a136.88,136.88,0,0,0,7-16.48h15.25V46.85H455.13c.78-2.32,1.56-4.77,2.12-7.09l-4.54-1c-.63,2.73-1.41,5.45-2.27,8.11H438.88v4.29H449.1a107.43,107.43,0,0,1-4.9,12c-.54,1.14-1,2-1.35,2.79l-1.07,2.31.81,3.48H455V82.05c-4.69.65-9.16,1.23-13,1.71l-3.88.47,1.06,4.63,2.82-.43c3.89-.6,8.35-1.3,13-2v13.89h4.33V85.8l9.86-1.64Z" style="fill:#262626;stroke:#262626;stroke-miterlimit:10;stroke-width:0.785960351571747px"/><path d="M487.15,71.77c-.21-.9-.41-1.81-.59-2.72.14-2.18.21-4.16.21-6.07v-3.2H482.3v3.14a64.14,64.14,0,0,1-.53,8.85c-1.15,8.38-4.75,18-15.86,25.94a17.92,17.92,0,0,1,3.48,3c9.08-6.61,13.48-14.44,15.54-21.93,3.05,9.81,7.73,17.78,15,21.86A26.85,26.85,0,0,1,503,97C494.87,92.87,489.77,83,487.15,71.77Z" style="fill:#262626;stroke:#262626;stroke-miterlimit:10;stroke-width:0.785960351571747px"/><rect x="353.85" y="44.05" width="50.02" height="4.36" style="fill:#262626;stroke:#262626;stroke-miterlimit:10;stroke-width:0.785960351571747px"/><path d="M406.87,84.84c-.35,8.75-.91,10.35-3.69,10.35h-9.65c-2.83,0-3.4-.54-3.4-2.79V67.55h20.15V63.12H348.2v4.43h18.3c-.52,6.39-1.45,12.29-4.05,17.29s-6.9,9.09-14.15,11.89l2.29,3.75c9.15-3.55,14.22-9,17.15-15.64,2.23-5.09,3.22-10.94,3.8-17.29H385.3V92.4c0,5.52,1.71,7,7.74,7h10.5c6,0,7.24-3.07,7.8-14.58Z" style="fill:#262626;stroke:#262626;stroke-miterlimit:10;stroke-width:0.785960351571747px"/></svg>